<?xml version="1.0" encoding="UTF-8"?>
<svg xmlns="http://www.w3.org/2000/svg" xmlns:xlink="http://www.w3.org/1999/xlink" viewBox="0 0 96 96" width="96px" height="96px">
<g id="surface20556646">
<path style=" stroke:none;fill-rule:nonzero;fill:rgb(0%,0%,0%);fill-opacity:1;" d="M 48 15 C 29.773438 15 15 29.773438 15 48 C 15 66.226562 29.773438 81 48 81 C 66.226562 81 81 66.226562 81 48 C 81 43.214844 79.980469 38.652344 78.136719 34.558594 L 74.039062 40.890625 C 74.667969 43.15625 75 45.539062 75 48 C 75 62.910156 62.910156 75 48 75 C 33.089844 75 21 62.910156 21 48 C 21 33.089844 33.089844 21 48 21 C 54.496094 21 60.449219 23.296875 65.101562 27.105469 L 68.371094 22.035156 C 62.761719 17.625 55.695312 15 48 15 Z M 74.945312 22.597656 C 73.980469 22.617188 73.042969 23.097656 72.480469 23.964844 L 50.699219 57.632812 L 37.164062 42.128906 C 36.078125 40.882812 34.183594 40.75 32.933594 41.839844 C 31.683594 42.929688 31.554688 44.824219 32.644531 46.070312 L 48.792969 64.574219 C 49.363281 65.230469 50.191406 65.605469 51.050781 65.605469 C 51.125 65.605469 51.195312 65.601562 51.265625 65.597656 C 52.207031 65.53125 53.0625 65.023438 53.570312 64.234375 L 77.519531 27.226562 C 78.417969 25.832031 78.023438 23.976562 76.632812 23.078125 C 76.109375 22.738281 75.523438 22.585938 74.945312 22.597656 Z M 74.945312 22.597656 "/>
</g>
</svg>
